<?xml version="1.0" encoding="UTF-8"?>
<svg id="final_dark_icon" data-name="final dark icon" xmlns="http://www.w3.org/2000/svg" xmlns:xlink="http://www.w3.org/1999/xlink" viewBox="0 0 213.81 207.39">
  <defs>
    <style>
      .cls-1 {
        fill: url(#New_Gradient_Swatch_2);
      }

      .cls-1, .cls-2, .cls-3 {
        stroke-width: 0px;
      }

      .cls-2 {
        fill: #000;
      }

      .cls-3 {
        fill: #36454f;
      }
    </style>
    <linearGradient id="New_Gradient_Swatch_2" data-name="New Gradient Swatch 2" x1="14.82" y1="125.46" x2="198.99" y2="125.46" gradientUnits="userSpaceOnUse">
      <stop offset="0" stop-color="#aee1cf"/>
      <stop offset=".15" stop-color="#a8dfcb"/>
      <stop offset=".34" stop-color="#99d9c3"/>
      <stop offset=".55" stop-color="#80d0b4"/>
      <stop offset=".78" stop-color="#5dc4a0"/>
      <stop offset="1" stop-color="#33b588"/>
    </linearGradient>
  </defs>
  <rect class="cls-2" x="14.41" y="11.2" width="185" height="185" rx="13.8" ry="13.8"/>
  <g>
    <path class="cls-1" d="M14.84,119.59c-.03-.1-.03-.23.03-.39,3.78-5.99,13.43-13.78,20.4-17.61,16.18-9.61,36.01-9.7,53.56-4.01,23.01,6.7,43.97,20,67.56,24.9,12.93,2.57,26.68-.36,38.07-6.36,9.75-4.11,1.03,12.75-.92,16.86-3.09,5.77-7.17,11.19-12.15,15.45-27.58,23.36-56.04-5.76-79.32-20.89-24.89-17.69-52.4-27.18-80.8-10.46-3.46,1.87-6.09,3.18-6.39,2.57l-.03-.05Z"/>
    <path class="cls-3" d="M137.93,67.65c-.63,1.1-1.29,1.89-2,2.39-.7.5-1.58.74-2.62.74s-2.28-.4-3.56-1.21c-1.28-.81-2.81-1.71-4.58-2.7-1.78-.99-3.85-1.89-6.23-2.7-2.38-.81-5.18-1.21-8.42-1.21-2.93,0-5.48.35-7.68,1.06-2.19.71-4.03,1.68-5.52,2.94-1.49,1.25-2.6,2.76-3.33,4.51-.73,1.75-1.1,3.67-1.1,5.76,0,2.66.74,4.88,2.23,6.66,1.49,1.78,3.46,3.29,5.92,4.54,2.45,1.25,5.25,2.38,8.38,3.37,3.13.99,6.35,2.05,9.64,3.17,3.29,1.12,6.5,2.43,9.64,3.92,3.14,1.49,5.93,3.37,8.38,5.64,2.45,2.27,4.43,5.05,5.92,8.34,1.49,3.29,2.23,7.29,2.23,11.99,0,5.12-.88,9.91-2.62,14.38-1.75,4.47-4.31,8.36-7.68,11.67-3.37,3.32-7.48,5.93-12.34,7.84-4.86,1.91-10.42,2.86-16.69,2.86-3.6,0-7.16-.35-10.65-1.06-3.5-.71-6.86-1.71-10.07-3.02-3.21-1.31-6.23-2.87-9.05-4.7-2.82-1.83-5.33-3.86-7.52-6.11l6.19-10.11c.52-.73,1.2-1.34,2.04-1.84.84-.5,1.72-.74,2.67-.74,1.31,0,2.71.54,4.23,1.61,1.52,1.07,3.32,2.26,5.41,3.57,2.09,1.31,4.53,2.5,7.33,3.56,2.79,1.07,6.15,1.61,10.07,1.61,6.01,0,10.65-1.42,13.95-4.27,3.29-2.85,4.94-6.93,4.94-12.26,0-2.98-.74-5.41-2.23-7.29-1.49-1.88-3.46-3.46-5.92-4.74-2.45-1.28-5.25-2.36-8.38-3.25-3.14-.89-6.32-1.85-9.56-2.9-3.24-1.04-6.42-2.3-9.56-3.76-3.14-1.46-5.93-3.37-8.38-5.72-2.46-2.35-4.43-5.29-5.92-8.81-1.49-3.53-2.23-7.87-2.23-13.05,0-4.13.82-8.15,2.47-12.07,1.65-3.92,4.03-7.39,7.17-10.42,3.14-3.03,7-5.46,11.6-7.29,4.6-1.83,9.87-2.74,15.83-2.74,6.69,0,12.85,1.05,18.49,3.13,5.64,2.09,10.45,5.01,14.42,8.78l-5.25,9.95Z"/>
  </g>
</svg>