<?xml version="1.0" encoding="UTF-8"?>
<svg id="Layer_20" xmlns="http://www.w3.org/2000/svg" viewBox="0 0 48 48">
  <defs>
    <style>
      .cls-1 {
        fill: #36454f;
      }

      .cls-2 {
        fill: #aee1cf;
      }

      .cls-3 {
        fill: #fff;
      }
    </style>
  </defs>
  <rect class="cls-3" width="48" height="48" rx="6.69" ry="6.69"/>
  <path class="cls-2" d="M43.87,19.62c-2.48,5.24-6.76,9.72-12.2,9.72-6.76,0-11.34-3.91-19.53-3.91-2.67,0-5.34.95-7.53,3.43l-.48-.48c2.57-5.24,6.86-9.72,12.2-9.72,6.76,0,11.34,3.91,19.63,3.91,2.67,0,5.24-.95,7.43-3.43l.48.48Z"/>
  <path class="cls-1" d="M30.91,15.97c-.14.24-.29.42-.45.53-.16.11-.35.17-.58.17s-.51-.09-.79-.27c-.29-.18-.63-.38-1.02-.6-.4-.22-.86-.42-1.39-.6-.53-.18-1.15-.27-1.88-.27-.65,0-1.22.08-1.71.24-.49.16-.9.38-1.23.65-.33.28-.58.61-.74,1-.16.39-.24.82-.24,1.28,0,.59.17,1.09.5,1.48.33.4.77.73,1.32,1.01.55.28,1.17.53,1.87.75.7.22,1.41.46,2.15.71.73.25,1.45.54,2.15.87.7.33,1.32.75,1.87,1.26.55.51.99,1.13,1.32,1.86.33.73.5,1.62.5,2.67,0,1.14-.2,2.21-.58,3.2-.39.99-.96,1.86-1.71,2.6-.75.74-1.67,1.32-2.75,1.75-1.08.42-2.32.64-3.72.64-.8,0-1.59-.08-2.37-.24-.78-.16-1.53-.38-2.24-.67-.72-.29-1.39-.64-2.02-1.05-.63-.41-1.19-.86-1.68-1.36l1.38-2.25c.12-.16.27-.3.45-.41.19-.11.38-.17.59-.17.29,0,.6.12.94.36.34.24.74.5,1.2.79.47.29,1.01.56,1.63.79.62.24,1.37.36,2.24.36,1.34,0,2.37-.32,3.11-.95.73-.63,1.1-1.54,1.1-2.73,0-.66-.17-1.2-.5-1.62-.33-.42-.77-.77-1.32-1.06-.55-.29-1.17-.53-1.87-.72-.7-.2-1.41-.41-2.13-.65-.72-.23-1.43-.51-2.13-.84-.7-.33-1.32-.75-1.87-1.27-.55-.52-.99-1.18-1.32-1.96-.33-.79-.5-1.75-.5-2.91,0-.92.18-1.82.55-2.69.37-.87.9-1.65,1.6-2.32.7-.67,1.56-1.22,2.58-1.62,1.02-.41,2.2-.61,3.53-.61,1.49,0,2.86.23,4.12.7,1.26.47,2.33,1.12,3.21,1.95l-1.17,2.22Z"/>
</svg>