<?xml version="1.0" encoding="UTF-8"?>
<svg id="final_tilde" data-name="final tilde" xmlns="http://www.w3.org/2000/svg" xmlns:xlink="http://www.w3.org/1999/xlink" viewBox="0 0 480.56 240.03">
  <defs>
    <style>
      .cls-1 {
        fill: url(#New_Gradient_Swatch_2);
        stroke-width: 0px;
      }
    </style>
    <linearGradient id="New_Gradient_Swatch_2" data-name="New Gradient Swatch 2" x1="67.83" y1="120.02" x2="412.73" y2="120.02" gradientUnits="userSpaceOnUse">
      <stop offset="0" stop-color="#aee1cf"/>
      <stop offset=".15" stop-color="#a8dfcb"/>
      <stop offset=".34" stop-color="#99d9c3"/>
      <stop offset=".55" stop-color="#80d0b4"/>
      <stop offset=".78" stop-color="#5dc4a0"/>
      <stop offset="1" stop-color="#33b588"/>
    </linearGradient>
  </defs>
  <path class="cls-1" d="M67.87,109.03c-.06-.18-.05-.42.05-.73,7.07-11.23,25.15-25.8,38.2-32.98,30.3-17.99,67.44-18.16,100.3-7.52,43.09,12.55,82.34,37.46,126.52,46.63,24.21,4.81,49.97-.67,71.29-11.9,18.26-7.71,1.93,23.89-1.73,31.58-5.8,10.81-13.43,20.96-22.76,28.93-51.65,43.74-104.95-10.78-148.54-39.13-46.61-33.13-98.13-50.9-151.32-19.59-6.48,3.51-11.4,5.96-11.97,4.82l-.05-.1Z"/>
</svg>