<?xml version="1.0" encoding="UTF-8"?>
<svg id="final_wordmark" data-name="final wordmark" xmlns="http://www.w3.org/2000/svg" xmlns:xlink="http://www.w3.org/1999/xlink" viewBox="0 0 670.18 324.64">
  <defs>
    <style>
      .cls-1 {
        fill: url(#New_Gradient_Swatch_2);
      }

      .cls-1, .cls-2 {
        stroke-width: 0px;
      }

      .cls-2 {
        fill: #36454f;
      }
    </style>
    <linearGradient id="New_Gradient_Swatch_2" data-name="New Gradient Swatch 2" x1="175.87" y1="233.89" x2="520.76" y2="233.89" gradientUnits="userSpaceOnUse">
      <stop offset="0" stop-color="#aee1cf"/>
      <stop offset=".15" stop-color="#a8dfcb"/>
      <stop offset=".34" stop-color="#99d9c3"/>
      <stop offset=".55" stop-color="#80d0b4"/>
      <stop offset=".78" stop-color="#5dc4a0"/>
      <stop offset="1" stop-color="#33b588"/>
    </linearGradient>
  </defs>
  <path class="cls-2" d="M304.01,71.36v171.37h-28.48V71.36h28.48Z"/>
  <path class="cls-2" d="M119.15,106.3c-.92,1.61-1.9,2.79-2.94,3.52-1.04.73-2.32,1.1-3.86,1.1s-3.36-.59-5.25-1.79c-1.88-1.19-4.13-2.52-6.74-3.98-2.62-1.46-5.67-2.78-9.17-3.98-3.5-1.19-7.63-1.79-12.4-1.79-4.31,0-8.07.52-11.3,1.56-3.23,1.04-5.94,2.48-8.13,4.32-2.19,1.85-3.82,4.06-4.9,6.63-1.08,2.58-1.61,5.4-1.61,8.48,0,3.92,1.09,7.19,3.28,9.8,2.19,2.62,5.09,4.84,8.71,6.69,3.61,1.84,7.73,3.5,12.34,4.96,4.61,1.46,9.34,3.02,14.18,4.67,4.84,1.65,9.57,3.58,14.18,5.77,4.61,2.19,8.72,4.96,12.34,8.3,3.61,3.34,6.52,7.44,8.71,12.28,2.19,4.84,3.29,10.73,3.29,17.64,0,7.54-1.29,14.59-3.86,21.16-2.58,6.57-6.34,12.3-11.3,17.18-4.96,4.88-11.01,8.73-18.16,11.53-7.15,2.8-15.34,4.21-24.56,4.21-5.31,0-10.53-.52-15.68-1.56-5.15-1.04-10.09-2.52-14.82-4.44-4.73-1.92-9.17-4.23-13.32-6.92-4.15-2.69-7.84-5.69-11.07-9l9.11-14.88c.77-1.07,1.77-1.98,3-2.71,1.23-.73,2.54-1.1,3.92-1.1,1.92,0,3.99.79,6.23,2.36,2.23,1.58,4.88,3.33,7.96,5.25,3.08,1.92,6.67,3.67,10.78,5.25,4.11,1.58,9.05,2.36,14.82,2.36,8.84,0,15.68-2.09,20.53-6.28,4.84-4.19,7.26-10.21,7.26-18.05,0-4.38-1.09-7.96-3.28-10.73-2.19-2.77-5.1-5.09-8.71-6.98-3.61-1.88-7.73-3.48-12.34-4.79-4.61-1.31-9.3-2.73-14.07-4.27-4.77-1.54-9.45-3.38-14.07-5.54-4.61-2.15-8.73-4.96-12.34-8.42-3.62-3.46-6.52-7.78-8.71-12.97-2.19-5.19-3.28-11.59-3.28-19.2,0-6.07,1.21-11.99,3.63-17.76,2.42-5.77,5.94-10.88,10.55-15.34,4.61-4.46,10.3-8.03,17.07-10.73,6.76-2.69,14.53-4.04,23.29-4.04,9.84,0,18.91,1.54,27.22,4.61,8.31,3.08,15.38,7.38,21.22,12.92l-7.73,14.65Z"/>
  <path class="cls-2" d="M622.06,244.57c-10.3,0-18.2-2.9-23.7-8.71-5.5-5.8-8.24-13.82-8.24-24.04v-66.08h-12.11c-1.54,0-2.85-.5-3.92-1.5-1.08-1-1.61-2.5-1.61-4.5v-11.3l19.03-3.11,6-32.29c.38-1.54,1.11-2.73,2.19-3.58,1.08-.84,2.46-1.27,4.15-1.27h14.76v37.25h31.6v20.3h-31.6v64.12c0,3.69.9,6.57,2.71,8.65s4.29,3.11,7.44,3.11c1.77,0,3.25-.21,4.44-.64,1.19-.42,2.23-.86,3.12-1.33.88-.46,1.67-.9,2.36-1.32s1.39-.64,2.08-.64c.84,0,1.54.21,2.07.64s1.11,1.06,1.73,1.9l8.53,13.84c-4.15,3.46-8.92,6.08-14.3,7.84-5.38,1.77-10.96,2.65-16.72,2.65Z"/>
  <path class="cls-1" d="M175.91,222.9c-.06-.18-.05-.42.05-.73,7.07-11.23,25.15-25.8,38.2-32.98,30.3-17.99,67.44-18.16,100.3-7.52,43.09,12.55,82.34,37.46,126.52,46.63,24.21,4.81,49.97-.67,71.29-11.9,18.26-7.71,1.93,23.89-1.73,31.58-5.8,10.81-13.43,20.96-22.76,28.93-51.65,43.74-104.95-10.78-148.54-39.13-46.61-33.13-98.13-50.9-151.32-19.59-6.48,3.51-11.4,5.96-11.97,4.82l-.05-.1Z"/>
  <path class="cls-2" d="M439.97,124.4l-64.46,150.84c-.85,2-1.94,3.52-3.29,4.56-1.35,1.04-3.4,1.56-6.17,1.56h-21.22l22.14-47.51-47.86-109.44h25.03c2.23,0,3.98.54,5.25,1.61,1.27,1.08,2.21,2.31,2.82,3.69l25.14,61.35c.84,2.08,1.55,4.15,2.13,6.23.58,2.08,1.14,4.19,1.67,6.34.69-2.15,1.38-4.28,2.08-6.4.69-2.11,1.46-4.21,2.31-6.28l23.76-61.23c.61-1.54,1.63-2.81,3.06-3.81,1.42-1,3.02-1.5,4.79-1.5h22.83Z"/>
  <path class="cls-2" d="M173.93,187.14c.46,6.07,1.54,11.32,3.23,15.74,1.69,4.42,3.92,8.07,6.69,10.96s6.05,5.04,9.86,6.46c3.8,1.42,8.01,2.13,12.63,2.13s8.59-.54,11.94-1.61c3.34-1.08,6.27-2.27,8.76-3.58,2.5-1.31,4.69-2.5,6.58-3.57,1.88-1.08,3.71-1.62,5.48-1.62,2.38,0,4.15.89,5.3,2.65l8.19,10.38c-3.15,3.69-6.69,6.79-10.61,9.28-3.92,2.5-8.01,4.5-12.28,6-4.27,1.5-8.61,2.55-13.03,3.17-4.42.61-8.71.92-12.86.92-8.23,0-15.88-1.37-22.95-4.09-7.07-2.73-13.22-6.76-18.45-12.11-5.23-5.34-9.34-11.95-12.34-19.83-3-7.88-4.5-17.01-4.5-27.39,0-8.07,1.31-15.66,3.92-22.78,2.62-7.11,6.36-13.3,11.25-18.57,4.88-5.26,10.84-9.44,17.88-12.51,7.03-3.08,14.97-4.61,23.81-4.61,7.45,0,14.34,1.19,20.64,3.58,6.3,2.38,11.72,5.86,16.26,10.44,4.54,4.58,8.09,10.19,10.67,16.84,2.57,6.65,3.86,14.24,3.86,22.78,0,4.31-.46,7.21-1.38,8.71-.92,1.5-2.69,2.25-5.31,2.25h-73.23ZM228.25,169.96c0-3.69-.52-7.17-1.56-10.44-1.04-3.27-2.6-6.13-4.67-8.59-2.08-2.46-4.71-4.4-7.9-5.82-3.19-1.42-6.9-2.13-11.13-2.13-8.23,0-14.7,2.35-19.43,7.04-4.73,4.69-7.75,11.34-9.05,19.95h53.74Z"/>
  <path class="cls-2" d="M480.79,138.93c2.38-2.38,4.9-4.59,7.55-6.63,2.65-2.03,5.46-3.76,8.42-5.19,2.96-1.42,6.13-2.54,9.51-3.34,3.38-.81,7.07-1.21,11.07-1.21,6.46,0,12.18,1.1,17.18,3.29,5,2.19,9.17,5.27,12.51,9.23,3.34,3.96,5.88,8.69,7.61,14.18,1.73,5.5,2.6,11.55,2.6,18.16v75.3h-28.49v-75.3c0-7.23-1.65-12.82-4.96-16.78-3.31-3.96-8.34-5.94-15.11-5.94-4.92,0-9.54,1.12-13.84,3.34-4.3,2.23-8.38,5.27-12.22,9.11v85.57h-28.49v-118.32h17.42c3.69,0,6.11,1.73,7.26,5.19l1.96,9.34Z"/>
</svg>