<?xml version="1.0" encoding="UTF-8"?>
<svg id="Layer_27" xmlns="http://www.w3.org/2000/svg" viewBox="0 0 500 500">
  <defs>
    <style>
      .cls-1 {
        fill: #36454f;
      }

      .cls-2 {
        fill: #aee1cf;
      }

      .cls-3 {
        fill: #fff;
      }
    </style>
  </defs>
  <rect class="cls-3" width="500" height="500" rx="69.71" ry="69.71"/>
  <path class="cls-2" d="M456.93,204.34c-25.8,54.59-70.47,101.24-127.04,101.24-70.47,0-118.1-40.69-203.45-40.69-27.8,0-55.59,9.93-78.41,35.73l-4.97-4.97c26.8-54.58,71.46-101.23,127.04-101.23,70.47,0,118.1,40.69,204.45,40.69,27.8,0,54.6-9.93,77.41-35.73l4.97,4.96Z"/>
  <path class="cls-1" d="M322,166.36c-1.45,2.55-3,4.4-4.64,5.55-1.63,1.15-3.66,1.73-6.09,1.73s-5.3-.94-8.27-2.82c-2.97-1.88-6.52-3.97-10.63-6.27-4.12-2.3-8.94-4.39-14.46-6.27-5.52-1.88-12.03-2.82-19.55-2.82-6.79,0-12.72.82-17.82,2.45-5.09,1.64-9.36,3.91-12.82,6.82-3.45,2.91-6.03,6.4-7.72,10.45-1.7,4.06-2.54,8.52-2.54,13.36,0,6.18,1.73,11.34,5.18,15.45,3.46,4.12,8.03,7.64,13.73,10.55,5.7,2.91,12.18,5.52,19.46,7.82,7.27,2.3,14.73,4.76,22.36,7.36,7.63,2.61,15.09,5.64,22.36,9.09,7.27,3.45,13.76,7.82,19.46,13.09,5.7,5.27,10.27,11.73,13.73,19.36,3.46,7.64,5.18,16.91,5.18,27.82,0,11.88-2.03,23-6.09,33.36-4.06,10.36-10,19.39-17.82,27.09-7.82,7.7-17.36,13.76-28.64,18.18-11.27,4.42-24.18,6.64-38.73,6.64-8.36,0-16.61-.82-24.72-2.45-8.12-1.64-15.91-3.97-23.37-7-7.45-3.03-14.45-6.66-21-10.91-6.54-4.24-12.36-8.97-17.45-14.18l14.36-23.45c1.21-1.7,2.79-3.12,4.72-4.27,1.94-1.15,4-1.73,6.18-1.73,3.03,0,6.3,1.24,9.81,3.73,3.52,2.49,7.7,5.24,12.55,8.27,4.85,3.03,10.52,5.79,17,8.27,6.48,2.49,14.27,3.73,23.36,3.73,13.94,0,24.72-3.3,32.36-9.91,7.63-6.6,11.45-16.09,11.45-28.45,0-6.91-1.73-12.55-5.18-16.91-3.46-4.36-8.03-8.03-13.73-11-5.7-2.97-12.18-5.48-19.45-7.55-7.27-2.06-14.67-4.3-22.18-6.73-7.52-2.42-14.9-5.33-22.18-8.73-7.27-3.39-13.76-7.82-19.45-13.27-5.7-5.45-10.27-12.27-13.73-20.45-3.45-8.18-5.18-18.27-5.18-30.27,0-9.57,1.91-18.91,5.73-28,3.82-9.09,9.36-17.15,16.64-24.18,7.27-7.03,16.24-12.66,26.91-16.91,10.66-4.24,22.91-6.36,36.72-6.36,15.52,0,29.82,2.43,42.91,7.27,13.09,4.85,24.24,11.64,33.45,20.36l-12.18,23.09Z"/>
</svg>