<?xml version="1.0" encoding="UTF-8"?>
<svg id="b" data-name="Layer_2" xmlns="http://www.w3.org/2000/svg" xmlns:xlink="http://www.w3.org/1999/xlink" viewBox="0 0 876.66 306">
  <defs>
    <style>
      .e {
        fill: url(#d);
      }

      .f {
        fill: #fff;
      }
    </style>
    <linearGradient id="d" x1="218.94" y1="224.1" x2="694.5" y2="224.1" gradientUnits="userSpaceOnUse">
      <stop offset="0" stop-color="#aee1cf"/>
      <stop offset=".15" stop-color="#89cdb5"/>
      <stop offset=".35" stop-color="#5ab596"/>
      <stop offset=".51" stop-color="#3da682"/>
      <stop offset=".6" stop-color="#33a17b"/>
      <stop offset="1" stop-color="#33b588"/>
    </linearGradient>
  </defs>
  <g id="c" data-name="Layer_20">
    <g>
      <path class="f" d="M395.45,0v236h-39V0h39Z"/>
      <path class="f" d="M140.72,48.16c-1.27,2.23-2.62,3.84-4.05,4.85-1.43,1.01-3.2,1.51-5.33,1.51s-4.64-.82-7.23-2.47c-2.6-1.64-5.7-3.47-9.3-5.49-3.61-2.01-7.82-3.84-12.64-5.48-4.83-1.64-10.52-2.47-17.09-2.47-5.94,0-11.13.72-15.58,2.15-4.45,1.43-8.19,3.42-11.21,5.96-3.02,2.54-5.27,5.59-6.75,9.14-1.49,3.55-2.23,7.45-2.23,11.69,0,5.4,1.51,9.91,4.53,13.51,3.02,3.61,7.02,6.68,12,9.22,4.98,2.54,10.65,4.82,17.02,6.84,6.36,2.01,12.88,4.16,19.56,6.44,6.68,2.28,13.2,4.93,19.56,7.95,6.36,3.02,12.03,6.84,17.02,11.45,4.98,4.61,8.99,10.26,12,16.93,3.02,6.68,4.53,14.79,4.53,24.33,0,10.39-1.78,20.12-5.33,29.18-3.55,9.06-8.75,16.96-15.58,23.69-6.84,6.73-15.18,12.03-25.04,15.9-9.86,3.87-21.15,5.8-33.87,5.8-7.32,0-14.52-.72-21.62-2.15-7.1-1.43-13.92-3.47-20.44-6.12-6.52-2.65-12.64-5.83-18.36-9.54-5.72-3.71-10.81-7.84-15.27-12.4l12.56-20.51c1.06-1.48,2.44-2.73,4.13-3.74,1.7-1.01,3.5-1.51,5.41-1.51,2.65,0,5.51,1.09,8.58,3.26,3.08,2.17,6.73,4.59,10.97,7.23,4.24,2.65,9.2,5.06,14.87,7.24,5.67,2.17,12.48,3.26,20.43,3.26,12.19,0,21.62-2.89,28.31-8.67,6.68-5.78,10.02-14.07,10.02-24.88,0-6.04-1.51-10.97-4.53-14.79-3.02-3.82-7.03-7.02-12.01-9.62-4.98-2.6-10.65-4.8-17.01-6.6-6.36-1.8-12.83-3.76-19.4-5.88-6.57-2.12-13.04-4.66-19.4-7.63-6.36-2.97-12.03-6.84-17.01-11.61-4.99-4.77-8.99-10.73-12.01-17.89-3.02-7.15-4.53-15.98-4.53-26.47,0-8.37,1.67-16.54,5.01-24.49,3.34-7.95,8.19-15,14.55-21.15,6.36-6.15,14.2-11.08,23.53-14.79,9.33-3.71,20.04-5.56,32.12-5.56,13.57,0,26.08,2.12,37.53,6.36,11.45,4.24,21.2,10.18,29.26,17.81l-10.65,20.2Z"/>
      <path class="f" d="M834.19,238.28c-14.11,0-24.92-4-32.45-12.01-7.53-8-11.29-19.06-11.29-33.15v-91.11h-17.32c-2.14,0-3.95-.68-5.44-2.06-1.49-1.37-2.24-3.43-2.24-6.17v-15.51l26.4-4.28,8.32-44.33c.53-2.11,1.55-3.74,3.04-4.91,1.49-1.16,3.42-1.74,5.76-1.74h20.48v52h44v28l-44-1v88.41c0,5.09,1.24,9.06,3.71,11.92s5.87,4.29,10.19,4.29c2.42,0,4.45-.29,6.08-.88,1.63-.58,3.05-1.19,4.27-1.83,1.21-.64,2.29-1.24,3.23-1.83.95-.58,1.9-.88,2.84-.88,1.16,0,2.1.29,2.84.88s1.52,1.46,2.37,2.62l11.69,19.08c-5.68,4.77-12.21,8.38-19.58,10.81-7.37,2.44-15,3.66-22.89,3.66Z"/>
      <path class="e" d="M218.99,208.94c-.09-.25-.06-.59.07-1.01,9.76-15.48,34.68-35.58,52.67-45.48,41.77-24.81,92.99-25.04,138.3-10.37,59.42,17.31,113.54,51.65,174.45,64.29,33.39,6.63,68.9-.93,98.3-16.41,25.18-10.62,2.67,32.94-2.39,43.55-7.99,14.9-18.51,28.9-31.38,39.89-71.22,60.31-144.71-14.87-204.82-53.95-64.26-45.68-135.31-70.19-208.65-27.01-8.94,4.84-15.72,8.21-16.5,6.64l-.07-.14Z"/>
      <path class="f" d="M582.94,73l-88.72,207.59c-1.17,2.75-2.67,4.84-4.52,6.27-1.85,1.43-4.68,2.14-8.49,2.14h-29.2l30.47-65.39-65.87-150.61h34.44c3.07,0,5.47.74,7.22,2.22,1.74,1.48,3.04,3.18,3.89,5.08l34.6,84.43c1.16,2.86,2.14,5.71,2.93,8.57.8,2.86,1.56,5.77,2.3,8.73.95-2.96,1.9-5.9,2.86-8.81.95-2.91,2.01-5.79,3.17-8.65l32.69-84.27c.84-2.12,2.25-3.86,4.21-5.24,1.95-1.38,4.15-2.06,6.59-2.06h31.42Z"/>
      <path class="f" d="M216.26,160c.63,8.37,2.12,15.61,4.45,21.71,2.33,6.1,5.4,11.13,9.22,15.11,3.82,3.97,8.35,6.94,13.6,8.91,5.25,1.96,11.05,2.94,17.41,2.94s11.85-.74,16.46-2.23c4.61-1.48,8.64-3.13,12.08-4.93,3.45-1.8,6.47-3.44,9.07-4.93,2.6-1.48,5.11-2.23,7.55-2.23,3.28,0,5.72,1.22,7.31,3.66l11.29,14.31c-4.35,5.09-9.22,9.36-14.63,12.8-5.4,3.45-11.05,6.2-16.93,8.27-5.88,2.07-11.87,3.52-17.97,4.37-6.1.85-12.01,1.27-17.73,1.27-11.34,0-21.89-1.88-31.64-5.64-9.75-3.76-18.23-9.33-25.44-16.7-7.21-7.37-12.88-16.48-17.01-27.35-4.14-10.87-6.2-23.45-6.2-37.76,0-11.13,1.8-21.6,5.4-31.41,3.61-9.8,8.77-18.34,15.51-25.6,6.73-7.26,14.95-13.01,24.65-17.25,9.7-4.24,20.64-6.36,32.83-6.36,10.28,0,19.77,1.65,28.46,4.93,8.69,3.29,16.16,8.09,22.42,14.39,6.25,6.31,11.16,14.05,14.71,23.22,3.55,9.17,5.33,19.64,5.33,31.4,0,5.94-.63,9.94-1.91,12-1.27,2.07-3.71,3.1-7.32,3.1h-100.97ZM291.15,136c0-5.09-.72-9.88-2.15-14.39-1.43-4.5-3.58-8.45-6.44-11.84-2.86-3.39-6.5-6.07-10.89-8.03-4.4-1.96-9.52-2.94-15.35-2.94-11.34,0-20.27,3.24-26.79,9.7-6.52,6.47-10.68,15.64-12.48,27.51h74.1Z"/>
      <path class="f" d="M639.14,93.02c3.28-3.28,6.75-6.33,10.41-9.14,3.65-2.8,7.51-5.19,11.59-7.15,4.07-1.96,8.44-3.5,13.1-4.61,4.66-1.11,9.74-1.67,15.25-1.67,8.89,0,16.78,1.51,23.67,4.53,6.88,3.02,12.62,7.26,17.23,12.71,4.61,5.46,8.1,11.97,10.48,19.54,2.38,7.57,3.58,15.92,3.58,25.02v103.74h-39v-103.84c0-9.96-2.29-17.68-6.88-23.14-4.59-5.46-11.58-8.19-20.96-8.19-6.83,0-13.23,1.54-19.2,4.61-5.97,3.08-11.63,7.26-16.96,12.56v117.99h-39V73h23.99c5.08,0,8.42,2.38,10,7.15l2.7,12.87Z"/>
    </g>
  </g>
</svg>